<?xml version="1.0" encoding="UTF-8" standalone="no"?>
<!DOCTYPE svg PUBLIC "-//W3C//DTD SVG 1.1//EN"
 "http://www.w3.org/Graphics/SVG/1.1/DTD/svg11.dtd">
<!-- Generated by graphviz version 2.38.0 (20140413.2041)
 -->
<!-- Title: G Pages: 1 -->
<svg width="638pt" height="1314pt"
 viewBox="0.00 0.00 638.27 1314.00" xmlns="http://www.w3.org/2000/svg" xmlns:xlink="http://www.w3.org/1999/xlink">
<g id="graph0" class="graph" transform="scale(1 1) rotate(0) translate(4 1310)">
<title>G</title>
<polygon fill="white" stroke="none" points="-4,4 -4,-1310 634.266,-1310 634.266,4 -4,4"/>
<g id="clust1" class="cluster"><title>cluster_Global</title>
<path fill="none" stroke="gray" d="M157.883,-152C157.883,-152 610.266,-152 610.266,-152 616.266,-152 622.266,-158 622.266,-164 622.266,-164 622.266,-1286 622.266,-1286 622.266,-1292 616.266,-1298 610.266,-1298 610.266,-1298 157.883,-1298 157.883,-1298 151.883,-1298 145.883,-1292 145.883,-1286 145.883,-1286 145.883,-164 145.883,-164 145.883,-158 151.883,-152 157.883,-152"/>
<text text-anchor="middle" x="384.074" y="-1285.2" font-family="Times New Roman,serif" font-size="11.00" fill="gray">Global</text>
</g>
<g id="clust2" class="cluster"><title>cluster_\classes</title>
<path fill="none" stroke="gray" d="M463.266,-652C463.266,-652 602.266,-652 602.266,-652 608.266,-652 614.266,-658 614.266,-664 614.266,-664 614.266,-1258 614.266,-1258 614.266,-1264 608.266,-1270 602.266,-1270 602.266,-1270 463.266,-1270 463.266,-1270 457.266,-1270 451.266,-1264 451.266,-1258 451.266,-1258 451.266,-664 451.266,-664 451.266,-658 457.266,-652 463.266,-652"/>
<text text-anchor="middle" x="532.766" y="-1257.2" font-family="Times New Roman,serif" font-size="11.00" fill="gray">classes</text>
</g>
<g id="clust3" class="cluster"><title>cluster_\classes\business</title>
<path fill="none" stroke="gray" d="M477.766,-1062C477.766,-1062 587.766,-1062 587.766,-1062 593.766,-1062 599.766,-1068 599.766,-1074 599.766,-1074 599.766,-1230 599.766,-1230 599.766,-1236 593.766,-1242 587.766,-1242 587.766,-1242 477.766,-1242 477.766,-1242 471.766,-1242 465.766,-1236 465.766,-1230 465.766,-1230 465.766,-1074 465.766,-1074 465.766,-1068 471.766,-1062 477.766,-1062"/>
<text text-anchor="middle" x="532.766" y="-1229.2" font-family="Times New Roman,serif" font-size="11.00" fill="gray">business</text>
</g>
<g id="clust4" class="cluster"><title>cluster_\classes\data</title>
<path fill="none" stroke="gray" d="M471.266,-928C471.266,-928 594.266,-928 594.266,-928 600.266,-928 606.266,-934 606.266,-940 606.266,-940 606.266,-1042 606.266,-1042 606.266,-1048 600.266,-1054 594.266,-1054 594.266,-1054 471.266,-1054 471.266,-1054 465.266,-1054 459.266,-1048 459.266,-1042 459.266,-1042 459.266,-940 459.266,-940 459.266,-934 465.266,-928 471.266,-928"/>
<text text-anchor="middle" x="532.766" y="-1041.2" font-family="Times New Roman,serif" font-size="11.00" fill="gray">data</text>
</g>
<g id="clust5" class="cluster"><title>cluster_\classes\entity</title>
<path fill="none" stroke="gray" d="M501.266,-794C501.266,-794 564.266,-794 564.266,-794 570.266,-794 576.266,-800 576.266,-806 576.266,-806 576.266,-908 576.266,-908 576.266,-914 570.266,-920 564.266,-920 564.266,-920 501.266,-920 501.266,-920 495.266,-920 489.266,-914 489.266,-908 489.266,-908 489.266,-806 489.266,-806 489.266,-800 495.266,-794 501.266,-794"/>
<text text-anchor="middle" x="532.766" y="-907.2" font-family="Times New Roman,serif" font-size="11.00" fill="gray">entity</text>
</g>
<g id="clust6" class="cluster"><title>cluster_\classes\util</title>
<path fill="none" stroke="gray" d="M508.266,-660C508.266,-660 557.266,-660 557.266,-660 563.266,-660 569.266,-666 569.266,-672 569.266,-672 569.266,-774 569.266,-774 569.266,-780 563.266,-786 557.266,-786 557.266,-786 508.266,-786 508.266,-786 502.266,-786 496.266,-780 496.266,-774 496.266,-774 496.266,-672 496.266,-672 496.266,-666 502.266,-660 508.266,-660"/>
<text text-anchor="middle" x="532.766" y="-773.2" font-family="Times New Roman,serif" font-size="11.00" fill="gray">util</text>
</g>
<g id="clust7" class="cluster"><title>cluster_\League</title>
<path fill="none" stroke="gray" d="M484.266,-420C484.266,-420 581.266,-420 581.266,-420 587.266,-420 593.266,-426 593.266,-432 593.266,-432 593.266,-588 593.266,-588 593.266,-594 587.266,-600 581.266,-600 581.266,-600 484.266,-600 484.266,-600 478.266,-600 472.266,-594 472.266,-588 472.266,-588 472.266,-432 472.266,-432 472.266,-426 478.266,-420 484.266,-420"/>
<text text-anchor="middle" x="532.766" y="-587.2" font-family="Times New Roman,serif" font-size="11.00" fill="gray">League</text>
</g>
<g id="clust8" class="cluster"><title>cluster_\League\OAuth2</title>
<path fill="none" stroke="gray" d="M492.266,-428C492.266,-428 573.266,-428 573.266,-428 579.266,-428 585.266,-434 585.266,-440 585.266,-440 585.266,-560 585.266,-560 585.266,-566 579.266,-572 573.266,-572 573.266,-572 492.266,-572 492.266,-572 486.266,-572 480.266,-566 480.266,-560 480.266,-560 480.266,-440 480.266,-440 480.266,-434 486.266,-428 492.266,-428"/>
<text text-anchor="middle" x="532.766" y="-559.2" font-family="Times New Roman,serif" font-size="11.00" fill="gray">OAuth2</text>
</g>
<g id="clust9" class="cluster"><title>cluster_\League\OAuth2\Client</title>
<path fill="none" stroke="gray" d="M500.266,-436C500.266,-436 565.266,-436 565.266,-436 571.266,-436 577.266,-442 577.266,-448 577.266,-448 577.266,-532 577.266,-532 577.266,-538 571.266,-544 565.266,-544 565.266,-544 500.266,-544 500.266,-544 494.266,-544 488.266,-538 488.266,-532 488.266,-532 488.266,-448 488.266,-448 488.266,-442 494.266,-436 500.266,-436"/>
<text text-anchor="middle" x="532.766" y="-531.2" font-family="Times New Roman,serif" font-size="11.00" fill="gray">Client</text>
</g>
<g id="clust10" class="cluster"><title>cluster_\League\OAuth2\Client\Provider</title>
<path fill="none" stroke="gray" d="M508.266,-444C508.266,-444 557.266,-444 557.266,-444 563.266,-444 569.266,-450 569.266,-456 569.266,-456 569.266,-504 569.266,-504 569.266,-510 563.266,-516 557.266,-516 557.266,-516 508.266,-516 508.266,-516 502.266,-516 496.266,-510 496.266,-504 496.266,-504 496.266,-456 496.266,-456 496.266,-450 502.266,-444 508.266,-444"/>
<text text-anchor="middle" x="532.766" y="-503.2" font-family="Times New Roman,serif" font-size="11.00" fill="gray">Provider</text>
</g>
<!-- \\classes\\business\\FeedbackManager -->
<g id="node1" class="node"><title>\\classes\\business\\FeedbackManager</title>
<polygon fill="none" stroke="black" points="591.766,-1214 473.766,-1214 473.766,-1178 591.766,-1178 591.766,-1214"/>
<text text-anchor="middle" x="532.766" y="-1193.2" font-family="Courier,monospace" font-size="11.00">FeedbackManager</text>
</g>
<!-- \\classes\\business\\UserManager -->
<g id="node2" class="node"><title>\\classes\\business\\UserManager</title>
<polygon fill="none" stroke="black" points="578.266,-1160 487.266,-1160 487.266,-1124 578.266,-1124 578.266,-1160"/>
<text text-anchor="middle" x="532.766" y="-1139.2" font-family="Courier,monospace" font-size="11.00">UserManager</text>
</g>
<!-- \\classes\\business\\Validation -->
<g id="node3" class="node"><title>\\classes\\business\\Validation</title>
<polygon fill="none" stroke="black" points="574.766,-1106 490.766,-1106 490.766,-1070 574.766,-1070 574.766,-1106"/>
<text text-anchor="middle" x="532.766" y="-1085.2" font-family="Courier,monospace" font-size="11.00">Validation</text>
</g>
<!-- \\classes\\data\\FeedbackManagerDB -->
<g id="node4" class="node"><title>\\classes\\data\\FeedbackManagerDB</title>
<polygon fill="none" stroke="black" points="598.266,-1026 467.266,-1026 467.266,-990 598.266,-990 598.266,-1026"/>
<text text-anchor="middle" x="532.766" y="-1005.2" font-family="Courier,monospace" font-size="11.00">FeedbackManagerDB</text>
</g>
<!-- \\classes\\data\\UserManagerDB -->
<g id="node5" class="node"><title>\\classes\\data\\UserManagerDB</title>
<polygon fill="none" stroke="black" points="584.766,-972 480.766,-972 480.766,-936 584.766,-936 584.766,-972"/>
<text text-anchor="middle" x="532.766" y="-951.2" font-family="Courier,monospace" font-size="11.00">UserManagerDB</text>
</g>
<!-- \\classes\\entity\\Feedback -->
<g id="node6" class="node"><title>\\classes\\entity\\Feedback</title>
<polygon fill="none" stroke="black" points="568.266,-892 497.266,-892 497.266,-856 568.266,-856 568.266,-892"/>
<text text-anchor="middle" x="532.766" y="-871.2" font-family="Courier,monospace" font-size="11.00">Feedback</text>
</g>
<!-- \\classes\\entity\\User -->
<g id="node7" class="node"><title>\\classes\\entity\\User</title>
<polygon fill="none" stroke="black" points="559.766,-838 505.766,-838 505.766,-802 559.766,-802 559.766,-838"/>
<text text-anchor="middle" x="532.766" y="-817.2" font-family="Courier,monospace" font-size="11.00">User</text>
</g>
<!-- \\classes\\util\\Config -->
<g id="node8" class="node"><title>\\classes\\util\\Config</title>
<polygon fill="none" stroke="black" points="561.266,-758 504.266,-758 504.266,-722 561.266,-722 561.266,-758"/>
<text text-anchor="middle" x="532.766" y="-737.2" font-family="Courier,monospace" font-size="11.00">Config</text>
</g>
<!-- \\classes\\util\\DBUtil -->
<g id="node9" class="node"><title>\\classes\\util\\DBUtil</title>
<polygon fill="none" stroke="black" points="561.266,-704 504.266,-704 504.266,-668 561.266,-668 561.266,-704"/>
<text text-anchor="middle" x="532.766" y="-683.2" font-family="Courier,monospace" font-size="11.00">DBUtil</text>
</g>
<!-- \\League\\OAuth2\\Client\\Provider\\Google -->
<g id="node10" class="node"><title>\\League\\OAuth2\\Client\\Provider\\Google</title>
<polygon fill="none" stroke="black" points="561.266,-488 504.266,-488 504.266,-452 561.266,-452 561.266,-488"/>
<text text-anchor="middle" x="532.766" y="-467.2" font-family="Courier,monospace" font-size="11.00">Google</text>
</g>
<!-- \\League\\OAuth2\\Client\\Provider\\AbstractProvider -->
<g id="node20" class="node"><title>\\League\\OAuth2\\Client\\Provider\\AbstractProvider</title>
<ellipse fill="none" stroke="black" cx="192.383" cy="-126" rx="192.266" ry="18"/>
<text text-anchor="middle" x="192.383" y="-122.3" font-family="Times New Roman,serif" font-size="14.00" fill="gray">\League\OAuth2\Client\Provider\AbstractProvider</text>
</g>
<!-- \\League\\OAuth2\\Client\\Provider\\Google&#45;&gt;\\League\\OAuth2\\Client\\Provider\\AbstractProvider -->
<g id="edge4" class="edge"><title>\\League\\OAuth2\\Client\\Provider\\Google&#45;&gt;\\League\\OAuth2\\Client\\Provider\\AbstractProvider</title>
<path fill="none" stroke="black" d="M504.243,-469.435C486.726,-467.585 464.856,-462.267 451.266,-448 357.073,-349.111 486.21,-239.435 384.766,-148 381.247,-144.828 377.532,-141.94 373.653,-139.314"/>
<polygon fill="none" stroke="black" points="375.269,-136.201 364.911,-133.975 371.621,-142.175 375.269,-136.201"/>
</g>
<!-- \\UserManagerDBTest -->
<g id="node11" class="node"><title>\\UserManagerDBTest</title>
<polygon fill="none" stroke="black" points="598.266,-412 467.266,-412 467.266,-376 598.266,-376 598.266,-412"/>
<text text-anchor="middle" x="532.766" y="-391.2" font-family="Courier,monospace" font-size="11.00">UserManagerDBTest</text>
</g>
<!-- \\PHPUnit_Framework_TestCase -->
<g id="node18" class="node"><title>\\PHPUnit_Framework_TestCase</title>
<ellipse fill="none" stroke="black" cx="192.383" cy="-72" rx="130.777" ry="18"/>
<text text-anchor="middle" x="192.383" y="-68.3" font-family="Times New Roman,serif" font-size="14.00" fill="gray">\PHPUnit_Framework_TestCase</text>
</g>
<!-- \\UserManagerDBTest&#45;&gt;\\PHPUnit_Framework_TestCase -->
<g id="edge1" class="edge"><title>\\UserManagerDBTest&#45;&gt;\\PHPUnit_Framework_TestCase</title>
<path fill="none" stroke="black" d="M467.021,-379.145C461.168,-375.871 455.764,-371.875 451.266,-367 368.045,-276.805 475.899,-181.193 384.766,-99 369.669,-85.3843 350.999,-76.701 331.292,-71.3781"/>
<polygon fill="none" stroke="black" points="332.087,-67.9696 321.545,-69.0281 330.446,-74.7746 332.087,-67.9696"/>
</g>
<!-- \\PHPMailer -->
<g id="node12" class="node"><title>\\PHPMailer</title>
<polygon fill="none" stroke="black" points="230.883,-644 153.883,-644 153.883,-608 230.883,-608 230.883,-644"/>
<text text-anchor="middle" x="192.383" y="-623.2" font-family="Courier,monospace" font-size="11.00">PHPMailer</text>
</g>
<!-- \\phpmailerException -->
<g id="node13" class="node"><title>\\phpmailerException</title>
<polygon fill="none" stroke="black" points="601.766,-358 463.766,-358 463.766,-322 601.766,-322 601.766,-358"/>
<text text-anchor="middle" x="532.766" y="-337.2" font-family="Courier,monospace" font-size="11.00">phpmailerException</text>
</g>
<!-- \\Exception -->
<g id="node19" class="node"><title>\\Exception</title>
<ellipse fill="none" stroke="black" cx="192.383" cy="-18" rx="50.0912" ry="18"/>
<text text-anchor="middle" x="192.383" y="-14.3" font-family="Times New Roman,serif" font-size="14.00" fill="gray">\Exception</text>
</g>
<!-- \\phpmailerException&#45;&gt;\\Exception -->
<g id="edge2" class="edge"><title>\\phpmailerException&#45;&gt;\\Exception</title>
<path fill="none" stroke="black" d="M463.567,-323.093C459.043,-320.237 454.864,-316.9 451.266,-313 368.045,-222.805 475.899,-127.193 384.766,-45 348.51,-12.3005 291.642,-8.04968 249.305,-10.4721"/>
<polygon fill="none" stroke="black" points="248.875,-6.99381 239.149,-11.1952 249.372,-13.9761 248.875,-6.99381"/>
</g>
<!-- \\PHPMailerOAuth -->
<g id="node14" class="node"><title>\\PHPMailerOAuth</title>
<polygon fill="none" stroke="black" points="588.266,-644 477.266,-644 477.266,-608 588.266,-608 588.266,-644"/>
<text text-anchor="middle" x="532.766" y="-623.2" font-family="Courier,monospace" font-size="11.00">PHPMailerOAuth</text>
</g>
<!-- \\PHPMailerOAuth&#45;&gt;\\PHPMailer -->
<g id="edge3" class="edge"><title>\\PHPMailerOAuth&#45;&gt;\\PHPMailer</title>
<path fill="none" stroke="black" d="M477.023,-626C411.776,-626 303.78,-626 241.569,-626"/>
<polygon fill="none" stroke="black" points="241.249,-622.5 231.249,-626 241.249,-629.5 241.249,-622.5"/>
</g>
<!-- \\PHPMailerOAuthGoogle -->
<g id="node15" class="node"><title>\\PHPMailerOAuthGoogle</title>
<polygon fill="none" stroke="black" points="608.766,-304 456.766,-304 456.766,-268 608.766,-268 608.766,-304"/>
<text text-anchor="middle" x="532.766" y="-283.2" font-family="Courier,monospace" font-size="11.00">PHPMailerOAuthGoogle</text>
</g>
<!-- \\POP3 -->
<g id="node16" class="node"><title>\\POP3</title>
<polygon fill="none" stroke="black" points="559.766,-250 505.766,-250 505.766,-214 559.766,-214 559.766,-250"/>
<text text-anchor="middle" x="532.766" y="-229.2" font-family="Courier,monospace" font-size="11.00">POP3</text>
</g>
<!-- \\SMTP -->
<g id="node17" class="node"><title>\\SMTP</title>
<polygon fill="none" stroke="black" points="559.766,-196 505.766,-196 505.766,-160 559.766,-160 559.766,-196"/>
<text text-anchor="middle" x="532.766" y="-175.2" font-family="Courier,monospace" font-size="11.00">SMTP</text>
</g>
</g>
</svg>
